<svg xmlns="http://www.w3.org/2000/svg" xmlns:xlink="http://www.w3.org/1999/xlink" width="1580" height="385.65"><rect width="1580" height="385.65" rx="5" ry="5" class="a"/><svg y="0%" x="0%"><circle cx="20" cy="20" r="6" fill="#ff5f58"/><circle cx="40" cy="20" r="6" fill="#ffbd2e"/><circle cx="60" cy="20" r="6" fill="#18c132"/></svg><svg height="325.65" viewBox="0 0 154 32.565" width="1540" x="15" xmlns="http://www.w3.org/2000/svg" xmlns:xlink="http://www.w3.org/1999/xlink" y="50"><style>@keyframes k{0%{transform:translateX(0)}.65%{transform:translateX(-154px)}3.22%{transform:translateX(-308px)}3.69%{transform:translateX(-462px)}4.33%{transform:translateX(-616px)}4.7%{transform:translateX(-770px)}5.08%{transform:translateX(-924px)}5.61%{transform:translateX(-1078px)}7.95%{transform:translateX(-1232px)}9.51%{transform:translateX(-1386px)}10.33%{transform:translateX(-1540px)}12.86%{transform:translateX(-1694px)}13.72%{transform:translateX(-1848px)}14.28%{transform:translateX(-2002px)}14.36%{transform:translateX(-2156px)}14.81%{transform:translateX(-2310px)}20.61%{transform:translateX(-2464px)}21.56%{transform:translateX(-2618px)}22.34%{transform:translateX(-2772px)}25.64%{transform:translateX(-2926px)}26.33%{transform:translateX(-3080px)}26.84%{transform:translateX(-3234px)}27.17%{transform:translateX(-3388px)}27.89%{transform:translateX(-3542px)}28.2%{transform:translateX(-3696px)}28.72%{transform:translateX(-3850px)}29.81%{transform:translateX(-4004px)}31.59%{transform:translateX(-4158px)}32.32%{transform:translateX(-4312px)}33.17%{transform:translateX(-4466px)}33.57%{transform:translateX(-4620px)}34%{transform:translateX(-4774px)}34.27%{transform:translateX(-4928px)}35.99%{transform:translateX(-5082px)}36.82%{transform:translateX(-5236px)}37.34%{transform:translateX(-5390px)}37.73%{transform:translateX(-5544px)}39.87%{transform:translateX(-5698px)}41.06%{transform:translateX(-5852px)}41.97%{transform:translateX(-6006px)}42.36%{transform:translateX(-6160px)}42.83%{transform:translateX(-6314px)}43.29%{transform:translateX(-6468px)}43.76%{transform:translateX(-6622px)}44.95%{transform:translateX(-6776px)}48.8%{transform:translateX(-6930px)}48.81%{transform:translateX(-7084px)}48.82%{transform:translateX(-7238px)}52%{transform:translateX(-7392px)}55.19%{transform:translateX(-7546px)}58.37%{transform:translateX(-7700px)}61.56%{transform:translateX(-7854px)}64.75%{transform:translateX(-8008px)}67.93%{transform:translateX(-8162px)}71.12%{transform:translateX(-8316px)}74.31%{transform:translateX(-8470px)}77.49%{transform:translateX(-8624px)}80.68%{transform:translateX(-8778px)}87.58%{transform:translateX(-8932px)}to{transform:translateX(-9086px)}}.a{fill:#282d35}.f,.g,.h{white-space:pre}.f{fill:#a8cc8c;font-weight:700}.g,.h{fill:#b9c0cb}.h{fill:#71bef2;font-weight:700}</style><g font-family="Monaco,Consolas,Menlo,'Bitstream Vera Sans Mono','Powerline Symbols',monospace" font-size="1.67"><defs><symbol id="6"><text y="1.67" class="f">santosh@ideapad</text><text x="15.03" y="1.67" class="g">:</text><text x="16.032" y="1.67" class="h">~/lab/timer</text><text x="27.054" y="1.67" class="g">$</text><text x="29.058" y="1.67" class="g">./timer</text><text x="37.074" y="1.67" class="g">-time</text><text x="43.086" y="1.67" class="g">9s</text><text x="46.092" y="1.67" class="g">-sound</text><text x="53.106" y="1.67" class="g">StoreDoor</text></symbol><symbol id="1"><text y="1.67" class="f">santosh@ideapad</text><text x="15.03" y="1.67" class="g">:</text><text x="16.032" y="1.67" class="h">~/lab/timer</text><text x="27.054" y="1.67" class="g">$</text></symbol><symbol id="3"><text y="1.67" class="f">santosh@ideapad</text><text x="15.03" y="1.67" class="g">:</text><text x="16.032" y="1.67" class="h">~/lab/timer</text><text x="27.054" y="1.67" class="g">$</text><text x="29.058" y="1.67" class="g">./timer</text><text x="37.074" y="1.67" class="g">-time</text></symbol><symbol id="4"><text y="1.67" class="f">santosh@ideapad</text><text x="15.03" y="1.67" class="g">:</text><text x="16.032" y="1.67" class="h">~/lab/timer</text><text x="27.054" y="1.67" class="g">$</text><text x="29.058" y="1.67" class="g">./timer</text><text x="37.074" y="1.67" class="g">-time</text><text x="43.086" y="1.67" class="g">9s</text></symbol><symbol id="5"><text y="1.67" class="f">santosh@ideapad</text><text x="15.03" y="1.67" class="g">:</text><text x="16.032" y="1.67" class="h">~/lab/timer</text><text x="27.054" y="1.67" class="g">$</text><text x="29.058" y="1.67" class="g">./timer</text><text x="37.074" y="1.67" class="g">-time</text><text x="43.086" y="1.67" class="g">9s</text><text x="46.092" y="1.67" class="g">-sound</text></symbol><symbol id="2"><text y="1.67" class="f">santosh@ideapad</text><text x="15.03" y="1.67" class="g">:</text><text x="16.032" y="1.67" class="h">~/lab/timer</text><text x="27.054" y="1.67" class="g">$</text><text x="29.058" y="1.67" class="g">./timer</text><text x="37.074" y="1.67" class="g">-t</text></symbol><symbol id="7"><text y="1.67" class="f">santosh@ideapad</text><text x="15.03" y="1.67" class="g">:</text><text x="16.032" y="1.67" class="h">~/lab/timer</text><text x="27.054" y="1.67" class="g">$</text><text x="29.058" y="1.67" class="g">./timer</text><text x="37.074" y="1.67" class="g">-time</text><text x="43.086" y="1.67" class="g">9s</text><text x="46.092" y="1.67" class="g">-sound</text><text x="53.106" y="1.67" class="g">StoreDoor</text><text x="63.126" y="1.67" class="g">-notify</text></symbol><symbol id="8"><text y="1.67" class="g">⏲</text><text x="3.006" y="1.67" class="g">100%</text><text x="8.016" y="1.67" class="g">[passed:</text><text x="17.034" y="1.67" class="g">9s,</text><text x="21.042" y="1.67" class="g">remaining:</text><text x="32.064" y="1.67" class="g">0s,</text><text x="36.072" y="1.67" class="g">total:</text><text x="43.086" y="1.67" class="g">9s]</text></symbol><symbol id="9"><text y="1.67" class="g">⏰</text><text x="3.006" y="1.67" class="g">Timer</text><text x="9.018" y="1.67" class="g">expired!</text></symbol><symbol id="a"><path fill="transparent" d="M0 0h154v15H0z"/></symbol><symbol id="b"><path fill="#6f7683" d="M0 0h1.102v2.171H0z"/></symbol></defs><path class="a" d="M0 0h154v32.565H0z"/><g style="animation-duration:28.243766s;animation-iteration-count:infinite;animation-name:k;animation-timing-function:steps(1,end)"><svg width="9240"><svg><use xlink:href="#a"/><use xlink:href="#b" x="-.004"/></svg><svg x="154"><use xlink:href="#a"/><use xlink:href="#b" x="28.996"/><use xlink:href="#1"/></svg><svg x="308"><use xlink:href="#a"/><use xlink:href="#b" x="29.996"/><text y="1.67" class="f">santosh@ideapad</text><text x="15.03" y="1.67" class="g">:</text><text x="16.032" y="1.67" class="h">~/lab/timer</text><text x="27.054" y="1.67" class="g">$</text><text x="29.058" y="1.67" class="g">.</text></svg><svg x="462"><use xlink:href="#a"/><use xlink:href="#b" x="30.996"/><text y="1.67" class="f">santosh@ideapad</text><text x="15.03" y="1.67" class="g">:</text><text x="16.032" y="1.67" class="h">~/lab/timer</text><text x="27.054" y="1.67" class="g">$</text><text x="29.058" y="1.67" class="g">./</text></svg><svg x="616"><use xlink:href="#a"/><use xlink:href="#b" x="31.996"/><text y="1.67" class="f">santosh@ideapad</text><text x="15.03" y="1.67" class="g">:</text><text x="16.032" y="1.67" class="h">~/lab/timer</text><text x="27.054" y="1.67" class="g">$</text><text x="29.058" y="1.67" class="g">./t</text></svg><svg x="770"><use xlink:href="#a"/><use xlink:href="#b" x="32.996"/><text y="1.67" class="f">santosh@ideapad</text><text x="15.03" y="1.67" class="g">:</text><text x="16.032" y="1.67" class="h">~/lab/timer</text><text x="27.054" y="1.67" class="g">$</text><text x="29.058" y="1.67" class="g">./ti</text></svg><svg x="924"><use xlink:href="#a"/><use xlink:href="#b" x="33.996"/><text y="1.67" class="f">santosh@ideapad</text><text x="15.03" y="1.67" class="g">:</text><text x="16.032" y="1.67" class="h">~/lab/timer</text><text x="27.054" y="1.67" class="g">$</text><text x="29.058" y="1.67" class="g">./tim</text></svg><svg x="1078"><use xlink:href="#a"/><use xlink:href="#b" x="36.996"/><text y="1.67" class="f">santosh@ideapad</text><text x="15.03" y="1.67" class="g">:</text><text x="16.032" y="1.67" class="h">~/lab/timer</text><text x="27.054" y="1.67" class="g">$</text><text x="29.058" y="1.67" class="g">./timer</text></svg><svg x="1232"><use xlink:href="#a"/><use xlink:href="#b" x="37.996"/><text y="1.67" class="f">santosh@ideapad</text><text x="15.03" y="1.67" class="g">:</text><text x="16.032" y="1.67" class="h">~/lab/timer</text><text x="27.054" y="1.67" class="g">$</text><text x="29.058" y="1.67" class="g">./timer</text><text x="37.074" y="1.67" class="g">-</text></svg><svg x="1386"><use xlink:href="#a"/><use xlink:href="#b" x="38.996"/><use xlink:href="#2"/></svg><svg x="1540"><use xlink:href="#a"/><use xlink:href="#b" x="39.996"/><use xlink:href="#2"/></svg><svg x="1694"><use xlink:href="#a"/><use xlink:href="#b" x="38.996"/><use xlink:href="#2"/></svg><svg x="1848"><use xlink:href="#a"/><use xlink:href="#b" x="39.996"/><text y="1.67" class="f">santosh@ideapad</text><text x="15.03" y="1.67" class="g">:</text><text x="16.032" y="1.67" class="h">~/lab/timer</text><text x="27.054" y="1.67" class="g">$</text><text x="29.058" y="1.67" class="g">./timer</text><text x="37.074" y="1.67" class="g">-ti</text></svg><svg x="2002"><use xlink:href="#a"/><use xlink:href="#b" x="40.996"/><text y="1.67" class="f">santosh@ideapad</text><text x="15.03" y="1.67" class="g">:</text><text x="16.032" y="1.67" class="h">~/lab/timer</text><text x="27.054" y="1.67" class="g">$</text><text x="29.058" y="1.67" class="g">./timer</text><text x="37.074" y="1.67" class="g">-tim</text></svg><svg x="2156"><use xlink:href="#a"/><use xlink:href="#b" x="41.996"/><use xlink:href="#3"/></svg><svg x="2310"><use xlink:href="#a"/><use xlink:href="#b" x="42.996"/><use xlink:href="#3"/></svg><svg x="2464"><use xlink:href="#a"/><use xlink:href="#b" x="43.996"/><text y="1.67" class="f">santosh@ideapad</text><text x="15.03" y="1.67" class="g">:</text><text x="16.032" y="1.67" class="h">~/lab/timer</text><text x="27.054" y="1.67" class="g">$</text><text x="29.058" y="1.67" class="g">./timer</text><text x="37.074" y="1.67" class="g">-time</text><text x="43.086" y="1.67" class="g">9</text></svg><svg x="2618"><use xlink:href="#a"/><use xlink:href="#b" x="44.996"/><use xlink:href="#4"/></svg><svg x="2772"><use xlink:href="#a"/><use xlink:href="#b" x="45.996"/><use xlink:href="#4"/></svg><svg x="2926"><use xlink:href="#a"/><use xlink:href="#b" x="46.996"/><text y="1.67" class="f">santosh@ideapad</text><text x="15.03" y="1.67" class="g">:</text><text x="16.032" y="1.67" class="h">~/lab/timer</text><text x="27.054" y="1.67" class="g">$</text><text x="29.058" y="1.67" class="g">./timer</text><text x="37.074" y="1.67" class="g">-time</text><text x="43.086" y="1.67" class="g">9s</text><text x="46.092" y="1.67" class="g">-</text></svg><svg x="3080"><use xlink:href="#a"/><use xlink:href="#b" x="47.996"/><text y="1.67" class="f">santosh@ideapad</text><text x="15.03" y="1.67" class="g">:</text><text x="16.032" y="1.67" class="h">~/lab/timer</text><text x="27.054" y="1.67" class="g">$</text><text x="29.058" y="1.67" class="g">./timer</text><text x="37.074" y="1.67" class="g">-time</text><text x="43.086" y="1.67" class="g">9s</text><text x="46.092" y="1.67" class="g">-s</text></svg><svg x="3234"><use xlink:href="#a"/><use xlink:href="#b" x="48.996"/><text y="1.67" class="f">santosh@ideapad</text><text x="15.03" y="1.67" class="g">:</text><text x="16.032" y="1.67" class="h">~/lab/timer</text><text x="27.054" y="1.67" class="g">$</text><text x="29.058" y="1.67" class="g">./timer</text><text x="37.074" y="1.67" class="g">-time</text><text x="43.086" y="1.67" class="g">9s</text><text x="46.092" y="1.67" class="g">-so</text></svg><svg x="3388"><use xlink:href="#a"/><use xlink:href="#b" x="49.996"/><text y="1.67" class="f">santosh@ideapad</text><text x="15.03" y="1.67" class="g">:</text><text x="16.032" y="1.67" class="h">~/lab/timer</text><text x="27.054" y="1.67" class="g">$</text><text x="29.058" y="1.67" class="g">./timer</text><text x="37.074" y="1.67" class="g">-time</text><text x="43.086" y="1.67" class="g">9s</text><text x="46.092" y="1.67" class="g">-sou</text></svg><svg x="3542"><use xlink:href="#a"/><use xlink:href="#b" x="50.996"/><text y="1.67" class="f">santosh@ideapad</text><text x="15.03" y="1.67" class="g">:</text><text x="16.032" y="1.67" class="h">~/lab/timer</text><text x="27.054" y="1.67" class="g">$</text><text x="29.058" y="1.67" class="g">./timer</text><text x="37.074" y="1.67" class="g">-time</text><text x="43.086" y="1.67" class="g">9s</text><text x="46.092" y="1.67" class="g">-soun</text></svg><svg x="3696"><use xlink:href="#a"/><use xlink:href="#b" x="51.996"/><use xlink:href="#5"/></svg><svg x="3850"><use xlink:href="#a"/><use xlink:href="#b" x="52.996"/><use xlink:href="#5"/></svg><svg x="4004"><use xlink:href="#a"/><use xlink:href="#b" x="53.996"/><text y="1.67" class="f">santosh@ideapad</text><text x="15.03" y="1.67" class="g">:</text><text x="16.032" y="1.67" class="h">~/lab/timer</text><text x="27.054" y="1.67" class="g">$</text><text x="29.058" y="1.67" class="g">./timer</text><text x="37.074" y="1.67" class="g">-time</text><text x="43.086" y="1.67" class="g">9s</text><text x="46.092" y="1.67" class="g">-sound</text><text x="53.106" y="1.67" class="g">s</text></svg><svg x="4158"><use xlink:href="#a"/><use xlink:href="#b" x="52.996"/><use xlink:href="#5"/></svg><svg x="4312"><use xlink:href="#a"/><use xlink:href="#b" x="53.996"/><text y="1.67" class="f">santosh@ideapad</text><text x="15.03" y="1.67" class="g">:</text><text x="16.032" y="1.67" class="h">~/lab/timer</text><text x="27.054" y="1.67" class="g">$</text><text x="29.058" y="1.67" class="g">./timer</text><text x="37.074" y="1.67" class="g">-time</text><text x="43.086" y="1.67" class="g">9s</text><text x="46.092" y="1.67" class="g">-sound</text><text x="53.106" y="1.67" class="g">S</text></svg><svg x="4466"><use xlink:href="#a"/><use xlink:href="#b" x="54.996"/><text y="1.67" class="f">santosh@ideapad</text><text x="15.03" y="1.67" class="g">:</text><text x="16.032" y="1.67" class="h">~/lab/timer</text><text x="27.054" y="1.67" class="g">$</text><text x="29.058" y="1.67" class="g">./timer</text><text x="37.074" y="1.67" class="g">-time</text><text x="43.086" y="1.67" class="g">9s</text><text x="46.092" y="1.67" class="g">-sound</text><text x="53.106" y="1.67" class="g">St</text></svg><svg x="4620"><use xlink:href="#a"/><use xlink:href="#b" x="55.996"/><text y="1.67" class="f">santosh@ideapad</text><text x="15.03" y="1.67" class="g">:</text><text x="16.032" y="1.67" class="h">~/lab/timer</text><text x="27.054" y="1.67" class="g">$</text><text x="29.058" y="1.67" class="g">./timer</text><text x="37.074" y="1.67" class="g">-time</text><text x="43.086" y="1.67" class="g">9s</text><text x="46.092" y="1.67" class="g">-sound</text><text x="53.106" y="1.67" class="g">Sto</text></svg><svg x="4774"><use xlink:href="#a"/><use xlink:href="#b" x="56.996"/><text y="1.67" class="f">santosh@ideapad</text><text x="15.03" y="1.67" class="g">:</text><text x="16.032" y="1.67" class="h">~/lab/timer</text><text x="27.054" y="1.67" class="g">$</text><text x="29.058" y="1.67" class="g">./timer</text><text x="37.074" y="1.67" class="g">-time</text><text x="43.086" y="1.67" class="g">9s</text><text x="46.092" y="1.67" class="g">-sound</text><text x="53.106" y="1.67" class="g">Stor</text></svg><svg x="4928"><use xlink:href="#a"/><use xlink:href="#b" x="57.996"/><text y="1.67" class="f">santosh@ideapad</text><text x="15.03" y="1.67" class="g">:</text><text x="16.032" y="1.67" class="h">~/lab/timer</text><text x="27.054" y="1.67" class="g">$</text><text x="29.058" y="1.67" class="g">./timer</text><text x="37.074" y="1.67" class="g">-time</text><text x="43.086" y="1.67" class="g">9s</text><text x="46.092" y="1.67" class="g">-sound</text><text x="53.106" y="1.67" class="g">Store</text></svg><svg x="5082"><use xlink:href="#a"/><use xlink:href="#b" x="58.996"/><text y="1.67" class="f">santosh@ideapad</text><text x="15.03" y="1.67" class="g">:</text><text x="16.032" y="1.67" class="h">~/lab/timer</text><text x="27.054" y="1.67" class="g">$</text><text x="29.058" y="1.67" class="g">./timer</text><text x="37.074" y="1.67" class="g">-time</text><text x="43.086" y="1.67" class="g">9s</text><text x="46.092" y="1.67" class="g">-sound</text><text x="53.106" y="1.67" class="g">StoreD</text></svg><svg x="5236"><use xlink:href="#a"/><use xlink:href="#b" x="59.996"/><text y="1.67" class="f">santosh@ideapad</text><text x="15.03" y="1.67" class="g">:</text><text x="16.032" y="1.67" class="h">~/lab/timer</text><text x="27.054" y="1.67" class="g">$</text><text x="29.058" y="1.67" class="g">./timer</text><text x="37.074" y="1.67" class="g">-time</text><text x="43.086" y="1.67" class="g">9s</text><text x="46.092" y="1.67" class="g">-sound</text><text x="53.106" y="1.67" class="g">StoreDo</text></svg><svg x="5390"><use xlink:href="#a"/><use xlink:href="#b" x="60.996"/><text y="1.67" class="f">santosh@ideapad</text><text x="15.03" y="1.67" class="g">:</text><text x="16.032" y="1.67" class="h">~/lab/timer</text><text x="27.054" y="1.67" class="g">$</text><text x="29.058" y="1.67" class="g">./timer</text><text x="37.074" y="1.67" class="g">-time</text><text x="43.086" y="1.67" class="g">9s</text><text x="46.092" y="1.67" class="g">-sound</text><text x="53.106" y="1.67" class="g">StoreDoo</text></svg><svg x="5544"><use xlink:href="#a"/><use xlink:href="#b" x="61.996"/><use xlink:href="#6"/></svg><svg x="5698"><use xlink:href="#a"/><use xlink:href="#b" x="62.996"/><use xlink:href="#6"/></svg><svg x="5852"><use xlink:href="#a"/><use xlink:href="#b" x="63.996"/><text y="1.67" class="f">santosh@ideapad</text><text x="15.03" y="1.67" class="g">:</text><text x="16.032" y="1.67" class="h">~/lab/timer</text><text x="27.054" y="1.67" class="g">$</text><text x="29.058" y="1.67" class="g">./timer</text><text x="37.074" y="1.67" class="g">-time</text><text x="43.086" y="1.67" class="g">9s</text><text x="46.092" y="1.67" class="g">-sound</text><text x="53.106" y="1.67" class="g">StoreDoor</text><text x="63.126" y="1.67" class="g">-</text></svg><svg x="6006"><use xlink:href="#a"/><use xlink:href="#b" x="64.996"/><text y="1.67" class="f">santosh@ideapad</text><text x="15.03" y="1.67" class="g">:</text><text x="16.032" y="1.67" class="h">~/lab/timer</text><text x="27.054" y="1.67" class="g">$</text><text x="29.058" y="1.67" class="g">./timer</text><text x="37.074" y="1.67" class="g">-time</text><text x="43.086" y="1.67" class="g">9s</text><text x="46.092" y="1.67" class="g">-sound</text><text x="53.106" y="1.67" class="g">StoreDoor</text><text x="63.126" y="1.67" class="g">-n</text></svg><svg x="6160"><use xlink:href="#a"/><use xlink:href="#b" x="65.996"/><text y="1.67" class="f">santosh@ideapad</text><text x="15.03" y="1.67" class="g">:</text><text x="16.032" y="1.67" class="h">~/lab/timer</text><text x="27.054" y="1.67" class="g">$</text><text x="29.058" y="1.67" class="g">./timer</text><text x="37.074" y="1.67" class="g">-time</text><text x="43.086" y="1.67" class="g">9s</text><text x="46.092" y="1.67" class="g">-sound</text><text x="53.106" y="1.67" class="g">StoreDoor</text><text x="63.126" y="1.67" class="g">-no</text></svg><svg x="6314"><use xlink:href="#a"/><use xlink:href="#b" x="66.996"/><text y="1.67" class="f">santosh@ideapad</text><text x="15.03" y="1.67" class="g">:</text><text x="16.032" y="1.67" class="h">~/lab/timer</text><text x="27.054" y="1.67" class="g">$</text><text x="29.058" y="1.67" class="g">./timer</text><text x="37.074" y="1.67" class="g">-time</text><text x="43.086" y="1.67" class="g">9s</text><text x="46.092" y="1.67" class="g">-sound</text><text x="53.106" y="1.67" class="g">StoreDoor</text><text x="63.126" y="1.67" class="g">-not</text></svg><svg x="6468"><use xlink:href="#a"/><use xlink:href="#b" x="67.996"/><text y="1.67" class="f">santosh@ideapad</text><text x="15.03" y="1.67" class="g">:</text><text x="16.032" y="1.67" class="h">~/lab/timer</text><text x="27.054" y="1.67" class="g">$</text><text x="29.058" y="1.67" class="g">./timer</text><text x="37.074" y="1.67" class="g">-time</text><text x="43.086" y="1.67" class="g">9s</text><text x="46.092" y="1.67" class="g">-sound</text><text x="53.106" y="1.67" class="g">StoreDoor</text><text x="63.126" y="1.67" class="g">-noti</text></svg><svg x="6622"><use xlink:href="#a"/><use xlink:href="#b" x="68.996"/><text y="1.67" class="f">santosh@ideapad</text><text x="15.03" y="1.67" class="g">:</text><text x="16.032" y="1.67" class="h">~/lab/timer</text><text x="27.054" y="1.67" class="g">$</text><text x="29.058" y="1.67" class="g">./timer</text><text x="37.074" y="1.67" class="g">-time</text><text x="43.086" y="1.67" class="g">9s</text><text x="46.092" y="1.67" class="g">-sound</text><text x="53.106" y="1.67" class="g">StoreDoor</text><text x="63.126" y="1.67" class="g">-notif</text></svg><svg x="6776"><use xlink:href="#a"/><use xlink:href="#b" x="69.996"/><use xlink:href="#7"/></svg><svg x="6930"><use xlink:href="#a"/><use xlink:href="#b" x="-.004" y="2.146"/><use xlink:href="#7"/></svg><svg x="7084"><use xlink:href="#a"/><use xlink:href="#b" x="55.996" y="2.146"/><use xlink:href="#7"/></svg><svg x="7238"><use xlink:href="#a"/><use xlink:href="#b" x="44.996" y="2.146"/><use xlink:href="#7"/><text y="3.841" class="g">⏲</text><text x="5.01" y="3.841" class="g">0%</text><text x="8.016" y="3.841" class="g">[passed:</text><text x="17.034" y="3.841" class="g">0,</text><text x="20.04" y="3.841" class="g">remaining:</text><text x="31.062" y="3.841" class="g">9s,</text><text x="35.07" y="3.841" class="g">total:</text><text x="42.084" y="3.841" class="g">9s]</text></svg><svg x="7392"><use xlink:href="#a"/><use xlink:href="#b" x="50.996" y="2.146"/><use xlink:href="#7"/><text y="3.841" class="g">⏲</text><text x="4.008" y="3.841" class="g">10%</text><text x="8.016" y="3.841" class="g">[passed:</text><text x="17.034" y="3.841" class="g">900ms,</text><text x="24.048" y="3.841" class="g">remaining:</text><text x="35.07" y="3.841" class="g">8.1s,</text><text x="41.082" y="3.841" class="g">total:</text><text x="48.096" y="3.841" class="g">9s]</text></svg><svg x="7546"><use xlink:href="#a"/><use xlink:href="#b" x="49.996" y="2.146"/><use xlink:href="#7"/><text y="3.841" class="g">⏲</text><text x="4.008" y="3.841" class="g">20%</text><text x="8.016" y="3.841" class="g">[passed:</text><text x="17.034" y="3.841" class="g">1.8s,</text><text x="23.046" y="3.841" class="g">remaining:</text><text x="34.068" y="3.841" class="g">7.2s,</text><text x="40.08" y="3.841" class="g">total:</text><text x="47.094" y="3.841" class="g">9s]</text></svg><svg x="7700"><use xlink:href="#a"/><use xlink:href="#b" x="49.996" y="2.146"/><use xlink:href="#7"/><text y="3.841" class="g">⏲</text><text x="4.008" y="3.841" class="g">30%</text><text x="8.016" y="3.841" class="g">[passed:</text><text x="17.034" y="3.841" class="g">2.7s,</text><text x="23.046" y="3.841" class="g">remaining:</text><text x="34.068" y="3.841" class="g">6.3s,</text><text x="40.08" y="3.841" class="g">total:</text><text x="47.094" y="3.841" class="g">9s]</text></svg><svg x="7854"><use xlink:href="#a"/><use xlink:href="#b" x="49.996" y="2.146"/><use xlink:href="#7"/><text y="3.841" class="g">⏲</text><text x="4.008" y="3.841" class="g">40%</text><text x="8.016" y="3.841" class="g">[passed:</text><text x="17.034" y="3.841" class="g">3.6s,</text><text x="23.046" y="3.841" class="g">remaining:</text><text x="34.068" y="3.841" class="g">5.4s,</text><text x="40.08" y="3.841" class="g">total:</text><text x="47.094" y="3.841" class="g">9s]</text></svg><svg x="8008"><use xlink:href="#a"/><use xlink:href="#b" x="49.996" y="2.146"/><use xlink:href="#7"/><text y="3.841" class="g">⏲</text><text x="4.008" y="3.841" class="g">50%</text><text x="8.016" y="3.841" class="g">[passed:</text><text x="17.034" y="3.841" class="g">4.5s,</text><text x="23.046" y="3.841" class="g">remaining:</text><text x="34.068" y="3.841" class="g">4.5s,</text><text x="40.08" y="3.841" class="g">total:</text><text x="47.094" y="3.841" class="g">9s]</text></svg><svg x="8162"><use xlink:href="#a"/><use xlink:href="#b" x="49.996" y="2.146"/><use xlink:href="#7"/><text y="3.841" class="g">⏲</text><text x="4.008" y="3.841" class="g">60%</text><text x="8.016" y="3.841" class="g">[passed:</text><text x="17.034" y="3.841" class="g">5.4s,</text><text x="23.046" y="3.841" class="g">remaining:</text><text x="34.068" y="3.841" class="g">3.6s,</text><text x="40.08" y="3.841" class="g">total:</text><text x="47.094" y="3.841" class="g">9s]</text></svg><svg x="8316"><use xlink:href="#a"/><use xlink:href="#b" x="49.996" y="2.146"/><use xlink:href="#7"/><text y="3.841" class="g">⏲</text><text x="4.008" y="3.841" class="g">70%</text><text x="8.016" y="3.841" class="g">[passed:</text><text x="17.034" y="3.841" class="g">6.3s,</text><text x="23.046" y="3.841" class="g">remaining:</text><text x="34.068" y="3.841" class="g">2.7s,</text><text x="40.08" y="3.841" class="g">total:</text><text x="47.094" y="3.841" class="g">9s]</text></svg><svg x="8470"><use xlink:href="#a"/><use xlink:href="#b" x="49.996" y="2.146"/><use xlink:href="#7"/><text y="3.841" class="g">⏲</text><text x="4.008" y="3.841" class="g">80%</text><text x="8.016" y="3.841" class="g">[passed:</text><text x="17.034" y="3.841" class="g">7.2s,</text><text x="23.046" y="3.841" class="g">remaining:</text><text x="34.068" y="3.841" class="g">1.8s,</text><text x="40.08" y="3.841" class="g">total:</text><text x="47.094" y="3.841" class="g">9s]</text></svg><svg x="8624"><use xlink:href="#a"/><use xlink:href="#b" x="50.996" y="2.146"/><use xlink:href="#7"/><text y="3.841" class="g">⏲</text><text x="4.008" y="3.841" class="g">90%</text><text x="8.016" y="3.841" class="g">[passed:</text><text x="17.034" y="3.841" class="g">8.1s,</text><text x="23.046" y="3.841" class="g">remaining:</text><text x="34.068" y="3.841" class="g">900ms,</text><text x="41.082" y="3.841" class="g">total:</text><text x="48.096" y="3.841" class="g">9s]</text></svg><svg x="8778"><use xlink:href="#a"/><use xlink:href="#b" x="-.004" y="6.488"/><use xlink:href="#7"/><use xlink:href="#8" y="2.171"/><use xlink:href="#9" y="4.342"/></svg><svg x="8932"><use xlink:href="#a"/><use xlink:href="#b" x="28.996" y="6.488"/><use xlink:href="#7"/><use xlink:href="#8" y="2.171"/><use xlink:href="#9" y="4.342"/><use xlink:href="#1" y="6.513"/></svg><svg x="9086"><use xlink:href="#a"/><use xlink:href="#b" x="-.004" y="8.659"/><use xlink:href="#7"/><use xlink:href="#8" y="2.171"/><use xlink:href="#9" y="4.342"/><text y="8.183" class="f">santosh@ideapad</text><text x="15.03" y="8.183" class="g">:</text><text x="16.032" y="8.183" class="h">~/lab/timer</text><text x="27.054" y="8.183" class="g">$</text><text x="29.058" y="8.183" class="g">exit</text></svg></svg></g></g></svg></svg>